<svg width="48" height="48" viewBox="0 0 48 48" fill="none" xmlns="http://www.w3.org/2000/svg">
<circle cx="24" cy="24" r="24" fill="#D6F9EF"/>
<path d="M17 21.9231C17 26.7749 21.2445 30.7872 23.1232 32.3255L23.1239 32.3261C23.3933 32.5466 23.5281 32.657 23.7288 32.7135C23.885 32.7575 24.1148 32.7575 24.271 32.7135C24.472 32.6569 24.6071 32.5464 24.877 32.3255C26.7557 30.7872 31 26.7749 31 21.9231C31 20.087 30.2625 18.3261 28.9497 17.0277C27.637 15.7294 25.8566 15 24 15C22.1435 15 20.363 15.7294 19.0503 17.0277C17.7375 18.326 17 20.087 17 21.9231Z" stroke="#0FCE95" stroke-width="2" stroke-linecap="round" stroke-linejoin="round"/>
</svg>
