<svg width="24" height="25" viewBox="0 0 24 25" fill="none" xmlns="http://www.w3.org/2000/svg">
<path d="M4 6.22098L12.2286 12.3405L19.9999 6.22098M21 8.46477V16.2162C21 17.3586 21.0002 17.93 20.7822 18.3663C20.5905 18.7501 20.2841 19.0621 19.9078 19.2577C19.48 19.48 18.9203 19.48 17.8002 19.48H6.2002C5.08009 19.48 4.51962 19.48 4.0918 19.2577C3.71547 19.0621 3.40973 18.7501 3.21799 18.3663C3 17.93 3 17.3586 3 16.2162V8.46477C3 7.32234 3 6.7512 3.21799 6.31485C3.40973 5.93103 3.71547 5.61895 4.0918 5.42338C4.51962 5.20105 5.08009 5.20105 6.2002 5.20105H17.8002C18.9203 5.20105 19.48 5.20105 19.9078 5.42338C20.2841 5.61895 20.5905 5.93103 20.7822 6.31485C21.0002 6.7512 21 7.32234 21 8.46477Z" stroke="#237DFF" stroke-width="2" stroke-linecap="round" stroke-linejoin="round"/>
</svg>
