<svg width="19" height="19" viewBox="0 0 19 19" fill="none" xmlns="http://www.w3.org/2000/svg">
<path d="M6.79604 2.23495C6.52606 1.54655 5.87235 1.09515 5.14541 1.09515H2.69984C1.76967 1.09515 1.01562 1.86426 1.01562 2.81297C1.01562 10.8769 7.42522 17.414 15.3316 17.414C16.2618 17.414 17.0157 16.645 17.0157 15.6963L17.0156 13.202C17.0156 12.4605 16.5729 11.7939 15.898 11.5185L13.5553 10.5627C12.949 10.3154 12.2588 10.4268 11.7571 10.8532L11.1517 11.3676C10.4454 11.968 9.40674 11.92 8.75657 11.2569L7.05241 9.51887C6.40224 8.85575 6.35539 7.79635 6.94402 7.07592L7.44836 6.4586C7.8664 5.94696 7.97566 5.24281 7.73315 4.62444L6.79604 2.23495Z" stroke="#237DFF" stroke-width="2" stroke-linecap="round" stroke-linejoin="round"/>
</svg>
