<svg width="20" height="17" viewBox="0 0 20 17" fill="none" xmlns="http://www.w3.org/2000/svg">
<path d="M2 2.22098L10.2286 8.34054L17.9999 2.22098M19 4.46477V12.2162C19 13.3586 19.0002 13.93 18.7822 14.3663C18.5905 14.7501 18.2841 15.0621 17.9078 15.2577C17.48 15.48 16.9203 15.48 15.8002 15.48H4.2002C3.08009 15.48 2.51962 15.48 2.0918 15.2577C1.71547 15.0621 1.40973 14.7501 1.21799 14.3663C1 13.93 1 13.3586 1 12.2162V4.46477C1 3.32234 1 2.7512 1.21799 2.31485C1.40973 1.93103 1.71547 1.61895 2.0918 1.42338C2.51962 1.20105 3.08009 1.20105 4.2002 1.20105H15.8002C16.9203 1.20105 17.48 1.20105 17.9078 1.42338C18.2841 1.61895 18.5905 1.93103 18.7822 2.31485C19.0002 2.7512 19 3.32234 19 4.46477Z" stroke="#237DFF" stroke-width="2" stroke-linecap="round" stroke-linejoin="round"/>
</svg>
