<svg width="24" height="25" viewBox="0 0 24 25" fill="none" xmlns="http://www.w3.org/2000/svg">
<path d="M13.1167 1.0199C10.0884 1.0199 7.26465 2.41296 5.32834 4.89804C3.93936 6.68659 3.21049 8.89213 3.21049 11.1678V12.7936C3.21049 13.6295 2.64206 14.4186 1.50338 14.4887C1.23017 14.5121 1.00188 14.6981 1.00188 14.9767C0.956039 15.7434 1.75367 17.1365 2.84651 18.2509C3.5983 19.04 4.48578 19.6674 5.44294 20.1545C5.37213 20.5583 5.38907 20.9731 5.49256 21.3696C5.59605 21.7661 5.78358 22.1346 6.04192 22.4491C6.30025 22.7636 6.62311 23.0165 6.98772 23.19C7.35232 23.3634 7.7498 23.4532 8.15213 23.4529C8.7844 23.4578 9.39857 23.2379 9.88901 22.8309C10.3794 22.4239 10.7155 21.8554 10.8393 21.2231H13.1396C13.4357 22.8022 15.0521 23.8933 16.783 23.2893C18.2866 22.7788 18.9467 21.037 18.3994 19.6206C19.0005 19.2169 19.5645 18.7584 20.0845 18.2509C21.011 17.3153 21.7459 16.2011 22.2464 14.9733C22.7469 13.7454 23.0031 12.4283 23 11.0986C23 8.40408 21.975 5.87319 20.1074 3.96965C18.2463 2.09013 15.736 1.03088 13.1167 1.0199ZM13.1167 2.15772C15.4619 2.15772 17.6705 3.08706 19.3327 4.78211C20.1512 5.61286 20.8 6.60081 21.2417 7.68885C21.6835 8.77689 21.9093 9.94343 21.9062 11.121C21.9097 12.2987 21.6842 13.4653 21.2428 14.5535C20.8013 15.6417 20.1528 16.6299 19.3345 17.4609C17.6823 19.1363 15.4486 20.0793 13.1185 20.0853H10.8632C10.7369 19.4524 10.4011 18.883 9.91194 18.4728C9.42282 18.0625 8.8102 17.8363 8.17688 17.8321C7.71608 17.8319 7.26246 17.9486 6.85691 18.1717C6.45135 18.3948 6.10658 18.7173 5.85367 19.1101V19.1326C5.03061 18.7054 4.28373 18.1403 3.64414 17.4609C2.87035 16.6718 2.43761 15.9519 2.25517 15.4882C2.76294 15.3645 3.22295 15.0891 3.5763 14.6972C4.0485 14.1807 4.30925 13.4998 4.30517 12.7936V11.121C4.30517 9.1483 4.94327 7.19707 6.1498 5.64132C7.85783 3.41148 10.3846 2.15772 13.1167 2.15772ZM10.9072 7.7543C10.7637 7.75418 10.6215 7.78292 10.4889 7.8389C10.3564 7.89487 10.2359 7.97697 10.1345 8.0805C10.033 8.18402 9.95262 8.30693 9.89784 8.44219C9.84307 8.57746 9.81499 8.72241 9.81524 8.86875C9.81487 9.01525 9.84289 9.16038 9.89767 9.29581C9.95245 9.43124 10.0329 9.55431 10.1345 9.65794C10.236 9.76158 10.3566 9.84374 10.4894 9.89972C10.6221 9.9557 10.7644 9.98439 10.9081 9.98414C11.0517 9.98426 11.1939 9.95548 11.3265 9.89945C11.4592 9.84342 11.5797 9.76123 11.6811 9.65761C11.7826 9.55399 11.8629 9.43097 11.9177 9.2956C11.9724 9.16023 12.0004 9.01517 12 8.86875C12.0003 8.72233 11.9721 8.5773 11.9173 8.44198C11.8625 8.30665 11.782 8.1837 11.6805 8.08016C11.5789 7.97663 11.4584 7.89455 11.3257 7.83863C11.193 7.78271 11.0507 7.75405 10.9072 7.7543ZM17.5119 7.7543C17.3683 7.75405 17.2261 7.78271 17.0934 7.83863C16.9607 7.89455 16.8401 7.97663 16.7386 8.08016C16.6371 8.1837 16.5566 8.30665 16.5018 8.44198C16.4469 8.5773 16.4188 8.72233 16.4191 8.86875C16.4187 9.01525 16.4467 9.16038 16.5015 9.29581C16.5563 9.43124 16.6367 9.55431 16.7383 9.65794C16.8398 9.76158 16.9604 9.84374 17.0932 9.89972C17.226 9.9557 17.3682 9.98439 17.5119 9.98414C17.6556 9.98439 17.7979 9.9557 17.9306 9.89972C18.0634 9.84374 18.184 9.76158 18.2855 9.65794C18.3871 9.55431 18.4675 9.43124 18.5223 9.29581C18.5771 9.16038 18.6051 9.01525 18.6048 8.86875C18.605 8.72233 18.5769 8.5773 18.5221 8.44198C18.4672 8.30665 18.3867 8.1837 18.2852 8.08016C18.1837 7.97663 18.0631 7.89455 17.9304 7.83863C17.7977 7.78271 17.6555 7.75405 17.5119 7.7543ZM10.7486 12.213C10.6566 12.2123 10.5659 12.2353 10.485 12.2799C10.404 12.3244 10.3354 12.3891 10.2855 12.4678C10.2355 12.5466 10.2059 12.637 10.1994 12.7306C10.1928 12.8241 10.2095 12.9179 10.248 13.0031C10.6045 13.7735 11.1683 14.4247 11.8737 14.8811C12.5791 15.3374 13.3971 15.58 14.2325 15.5807C15.0689 15.5847 15.889 15.3441 16.5954 14.8872C17.3018 14.4303 17.8649 13.7764 18.2179 13.0031C18.2563 12.9178 18.273 12.824 18.2664 12.7303C18.2598 12.6367 18.2302 12.5463 18.1801 12.4674C18.1301 12.3886 18.0613 12.324 17.9803 12.2795C17.8992 12.235 17.8084 12.2122 17.7164 12.213H17.6934C17.5911 12.2125 17.4909 12.2433 17.4058 12.3012C17.3207 12.3592 17.2545 12.4418 17.2158 12.5384C16.9494 13.1154 16.5273 13.6032 15.999 13.9444C15.4706 14.2857 14.8579 14.4664 14.2325 14.4653C13.607 14.4664 12.9943 14.2857 12.4659 13.9444C11.9376 13.6032 11.5155 13.1154 11.2491 12.5384C11.2016 12.4437 11.1302 12.3636 11.0422 12.3064C10.9542 12.2492 10.8528 12.217 10.7486 12.213Z" fill="black"/>
</svg>
