<svg width="48" height="48" viewBox="0 0 48 48" fill="none" xmlns="http://www.w3.org/2000/svg">
<circle cx="24" cy="24" r="24" fill="#F6F8FF"/>
<g clip-path="url(#clip0_558_1671)">
<path d="M25.218 12C21.915 12 18.835 13.49 16.723 16.148C15.208 18.061 14.413 20.42 14.413 22.854V24.593C14.413 25.487 13.793 26.331 12.551 26.406C12.253 26.431 12.004 26.63 12.004 26.928C11.954 27.748 12.824 29.238 14.016 30.43C14.836 31.274 15.804 31.945 16.848 32.466C16.7708 32.898 16.7892 33.3416 16.9021 33.7657C17.015 34.1898 17.2196 34.5839 17.5013 34.9203C17.7831 35.2567 18.1353 35.5272 18.5329 35.7127C18.9306 35.8983 19.3642 35.9943 19.803 35.994C20.4926 35.9992 21.1625 35.764 21.6975 35.3287C22.2324 34.8934 22.5989 34.2853 22.734 33.609H25.243C25.566 35.298 27.329 36.465 29.217 35.819C30.857 35.273 31.577 33.41 30.98 31.895C31.6356 31.4632 32.2508 30.9728 32.818 30.43C33.8286 29.4293 34.6302 28.2376 35.1761 26.9243C35.722 25.611 36.0014 24.2022 35.998 22.78C35.998 19.898 34.88 17.191 32.843 15.155C30.813 13.1447 28.0749 12.0118 25.218 12ZM25.218 13.217C27.776 13.217 30.185 14.211 31.998 16.024C32.8907 16.9125 33.5984 17.9692 34.0802 19.133C34.562 20.2967 34.8084 21.5445 34.805 22.804C34.8088 24.0636 34.5628 25.3114 34.0814 26.4753C33.5999 27.6392 32.8925 28.6962 32 29.585C30.1978 31.377 27.7615 32.3856 25.22 32.392H22.76C22.6223 31.7151 22.256 31.1061 21.7225 30.6673C21.189 30.2285 20.5208 29.9865 19.83 29.982C19.3274 29.9818 18.8326 30.1067 18.3903 30.3453C17.9479 30.5839 17.5719 30.9289 17.296 31.349V31.373C16.3983 30.9161 15.5836 30.3117 14.886 29.585C14.042 28.741 13.57 27.971 13.371 27.475C13.9248 27.3427 14.4266 27.0482 14.812 26.629C15.327 26.0766 15.6115 25.3482 15.607 24.593V22.804C15.607 20.694 16.303 18.607 17.619 16.943C19.482 14.558 22.238 13.217 25.218 13.217ZM22.808 19.203C22.6515 19.2029 22.4965 19.2336 22.3518 19.2935C22.2072 19.3534 22.0758 19.4412 21.9652 19.5519C21.8546 19.6626 21.7669 19.7941 21.7071 19.9388C21.6474 20.0834 21.6167 20.2385 21.617 20.395C21.6166 20.5517 21.6472 20.7069 21.7069 20.8518C21.7667 20.9966 21.8544 21.1283 21.9652 21.2391C22.0759 21.35 22.2075 21.4378 22.3523 21.4977C22.4971 21.5576 22.6523 21.5883 22.809 21.588C22.9656 21.5881 23.1207 21.5574 23.2654 21.4974C23.4101 21.4375 23.5415 21.3496 23.6522 21.2388C23.7628 21.1279 23.8505 20.9963 23.9102 20.8515C23.9699 20.7068 24.0004 20.5516 24 20.395C24.0003 20.2384 23.9696 20.0833 23.9098 19.9385C23.85 19.7938 23.7622 19.6623 23.6515 19.5515C23.5407 19.4408 23.4092 19.353 23.2645 19.2932C23.1197 19.2334 22.9646 19.2027 22.808 19.203ZM30.012 19.203C29.8554 19.2027 29.7003 19.2334 29.5555 19.2932C29.4108 19.353 29.2793 19.4408 29.1685 19.5515C29.0578 19.6623 28.97 19.7938 28.9102 19.9385C28.8504 20.0833 28.8197 20.2384 28.82 20.395C28.8196 20.5517 28.8502 20.7069 28.9099 20.8518C28.9697 20.9966 29.0574 21.1283 29.1682 21.2391C29.2789 21.35 29.4105 21.4378 29.5553 21.4977C29.7001 21.5576 29.8553 21.5883 30.012 21.588C30.1687 21.5883 30.3239 21.5576 30.4687 21.4977C30.6135 21.4378 30.7451 21.35 30.8558 21.2391C30.9666 21.1283 31.0543 20.9966 31.1141 20.8518C31.1738 20.7069 31.2044 20.5517 31.204 20.395C31.2043 20.2384 31.1736 20.0833 31.1138 19.9385C31.054 19.7938 30.9662 19.6623 30.8555 19.5515C30.7447 19.4408 30.6132 19.353 30.4685 19.2932C30.3237 19.2334 30.1686 19.2027 30.012 19.203ZM22.635 23.972C22.5347 23.9712 22.4358 23.9958 22.3475 24.0435C22.2592 24.0911 22.1843 24.1603 22.1299 24.2445C22.0754 24.3288 22.0432 24.4254 22.036 24.5255C22.0289 24.6256 22.0471 24.7258 22.089 24.817C22.4779 25.641 23.0928 26.3376 23.8622 26.8257C24.6316 27.3138 25.5238 27.5733 26.435 27.574C27.3474 27.5783 28.2418 27.3209 29.0123 26.8322C29.7828 26.3435 30.397 25.6442 30.782 24.817C30.824 24.7258 30.8422 24.6254 30.835 24.5253C30.8278 24.4251 30.7954 24.3284 30.7408 24.2441C30.6863 24.1598 30.6113 24.0907 30.5229 24.0431C30.4344 23.9955 30.3354 23.9711 30.235 23.972H30.21C30.0984 23.9715 29.9891 24.0043 29.8963 24.0663C29.8034 24.1283 29.7313 24.2167 29.689 24.32C29.3985 24.9372 28.9381 25.4588 28.3618 25.8238C27.7855 26.1889 27.1172 26.3821 26.435 26.381C25.7528 26.3821 25.0845 26.1889 24.5082 25.8238C23.9319 25.4588 23.4715 24.9372 23.181 24.32C23.1292 24.2187 23.0512 24.133 22.9553 24.0719C22.8593 24.0107 22.7487 23.9762 22.635 23.972Z" fill="black"/>
</g>
<defs>
<clipPath id="clip0_558_1671">
<rect width="24" height="24" fill="white" transform="translate(12 12)"/>
</clipPath>
</defs>
</svg>
