<svg width="24" height="25" viewBox="0 0 24 25" fill="none" xmlns="http://www.w3.org/2000/svg">
<path d="M3 13.3405H21V11.3405H3V13.3405ZM12 20.5199C7.60023 20.5199 4 16.8766 4 12.3405H2C2 17.9437 6.45864 22.5199 12 22.5199V20.5199ZM4 12.3405C4 7.80452 7.60023 4.16119 12 4.16119V2.16119C6.45864 2.16119 2 6.73734 2 12.3405H4ZM12 4.16119C16.3998 4.16119 20 7.80452 20 12.3405H22C22 6.73734 17.5414 2.16119 12 2.16119V4.16119ZM20 12.3405C20 16.8766 16.3998 20.5199 12 20.5199V22.5199C17.5414 22.5199 22 17.9437 22 12.3405H20ZM12 20.5199C11.78 20.5199 11.4906 20.4218 11.1395 20.081C10.7837 19.7356 10.4175 19.1873 10.0883 18.4318C9.4313 16.9241 9 14.7712 9 12.3405H7C7 14.9794 7.46413 17.4163 8.25483 19.2308C8.64951 20.1365 9.14526 20.9325 9.74653 21.5161C10.3525 22.1043 11.1155 22.5199 12 22.5199V20.5199ZM9 12.3405C9 9.90983 9.4313 7.75699 10.0883 6.24924C10.4175 5.49383 10.7837 4.94551 11.1395 4.60012C11.4906 4.25931 11.78 4.16119 12 4.16119V2.16119C11.1155 2.16119 10.3525 2.5768 9.74653 3.16499C9.14526 3.7486 8.64951 4.54456 8.25483 5.45028C7.46413 7.2648 7 9.70163 7 12.3405H9ZM12 4.16119C12.22 4.16119 12.5094 4.25931 12.8605 4.60012C13.2163 4.94551 13.5825 5.49383 13.9117 6.24924C14.5687 7.75699 15 9.90983 15 12.3405H17C17 9.70163 16.5359 7.2648 15.7452 5.45028C15.3505 4.54456 14.8547 3.7486 14.2535 3.16499C13.6475 2.5768 12.8845 2.16119 12 2.16119V4.16119ZM15 12.3405C15 14.7712 14.5687 16.9241 13.9117 18.4318C13.5825 19.1873 13.2163 19.7356 12.8605 20.081C12.5094 20.4218 12.22 20.5199 12 20.5199V22.5199C12.8845 22.5199 13.6475 22.1043 14.2535 21.5161C14.8547 20.9325 15.3505 20.1365 15.7452 19.2308C16.5359 17.4163 17 14.9794 17 12.3405H15Z" fill="#237DFF"/>
</svg>
