<svg width="48" height="48" viewBox="0 0 48 48" fill="none" xmlns="http://www.w3.org/2000/svg">
<circle cx="24" cy="24" r="24" fill="#F6F8FF"/>
<path d="M21.796 17.1327C21.5261 16.4577 20.8724 16.0151 20.1454 16.0151H17.6998C16.7697 16.0151 16.0156 16.7692 16.0156 17.6994C16.0156 25.6058 22.4252 32.0151 30.3316 32.0151C31.2618 32.0151 32.0157 31.2612 32.0157 30.331L32.0156 27.8854C32.0156 27.1585 31.5729 26.5048 30.898 26.2348L28.5553 25.2977C27.949 25.0552 27.2588 25.1645 26.7571 25.5825L26.1517 26.0869C25.4454 26.6755 24.4067 26.6285 23.7566 25.9783L22.0524 24.2743C21.4022 23.6241 21.3554 22.5854 21.944 21.879L22.4484 21.2738C22.8664 20.7722 22.9757 20.0818 22.7331 19.4755L21.796 17.1327Z" stroke="#237DFF" stroke-width="2" stroke-linecap="round" stroke-linejoin="round"/>
</svg>
