<svg width="21" height="20" viewBox="0 0 21 20" fill="none" xmlns="http://www.w3.org/2000/svg">
<path d="M8.70401 2.325C8.83607 2.09839 9.02523 1.91037 9.25264 1.77969C9.48004 1.64901 9.73773 1.58024 10 1.58024C10.2623 1.58024 10.52 1.64901 10.7474 1.77969C10.9748 1.91037 11.164 2.09839 11.296 2.325L13.114 5.445C13.2187 5.62507 13.3597 5.78138 13.5281 5.90396C13.6964 6.02655 13.8885 6.11272 14.092 6.157L17.622 6.921C17.8782 6.97671 18.1154 7.09861 18.3098 7.27455C18.5042 7.45049 18.6491 7.67431 18.73 7.92371C18.811 8.17311 18.8251 8.43937 18.7711 8.69595C18.717 8.95252 18.5967 9.19045 18.422 9.386L16.017 12.079C15.8783 12.2342 15.7734 12.4167 15.709 12.6146C15.6446 12.8126 15.6221 13.0219 15.643 13.229L16.006 16.822C16.0325 17.083 15.99 17.3464 15.8829 17.5858C15.7758 17.8253 15.6077 18.0324 15.3955 18.1867C15.1833 18.3409 14.9344 18.4368 14.6735 18.4647C14.4127 18.4927 14.1491 18.4517 13.909 18.346L10.605 16.89C10.4144 16.806 10.2083 16.7626 10 16.7626C9.79168 16.7626 9.58564 16.806 9.39501 16.89L6.09101 18.346C5.85094 18.4517 5.58733 18.4927 5.3265 18.4647C5.06567 18.4368 4.81673 18.3409 4.60452 18.1867C4.39231 18.0324 4.22426 17.8253 4.11714 17.5858C4.01001 17.3464 3.96756 17.083 3.99401 16.822L4.35701 13.229C4.37803 13.0219 4.35572 12.8127 4.2915 12.6148C4.22728 12.4168 4.12257 12.2343 3.98401 12.079L1.57801 9.386C1.40334 9.19045 1.28298 8.95252 1.22893 8.69595C1.17488 8.43937 1.18903 8.17311 1.26997 7.92371C1.35092 7.67431 1.49582 7.45049 1.69024 7.27455C1.88465 7.09861 2.12179 6.97671 2.37801 6.921L5.90801 6.157C6.11162 6.11297 6.30383 6.027 6.47238 5.90459C6.64093 5.78218 6.78214 5.626 6.88701 5.446L8.70401 2.325Z" fill="#FFF469"/>
<path d="M14.1705 18.2414L11.0349 17.1271C10.6634 16.9975 10.2488 16.9975 9.87738 17.1271L6.74175 18.2414C5.60152 18.6474 4.40083 17.7836 4.43538 16.5656L4.5304 13.2313C4.53904 12.8339 4.4181 12.4452 4.17624 12.1343L2.14629 9.491C1.40341 8.53217 1.86123 7.12416 3.02737 6.77864L6.22347 5.83709C6.60354 5.72479 6.93179 5.48292 7.15638 5.15468L9.03948 2.40776C9.72189 1.40575 11.2076 1.40575 11.8901 2.40776L13.7732 5.15468C13.9977 5.48292 14.326 5.72479 14.7061 5.83709L17.9022 6.77864C19.0683 7.12416 19.5261 8.52353 18.7833 9.491L16.7533 12.1343C16.5114 12.4452 16.3819 12.8339 16.3991 13.2313L16.4769 15.9523" stroke="#237DFF" stroke-width="2" stroke-linecap="round"/>
<path d="M7.04565 9.40452C7.04565 9.40452 9.13607 8.9899 10.1035 7.08952" stroke="#237DFF" stroke-width="2" stroke-linecap="round"/>
</svg>
