<svg width="25" height="24" viewBox="0 0 25 24" fill="none" xmlns="http://www.w3.org/2000/svg">
<path d="M16.1705 20.2414L13.0349 19.1271C12.6634 18.9975 12.2488 18.9975 11.8774 19.1271L8.74175 20.2414C7.60152 20.6474 6.40083 19.7836 6.43538 18.5656L6.5304 15.2313C6.53904 14.8339 6.41811 14.4452 6.17624 14.1343L4.14629 11.491C3.40341 10.5322 3.86123 9.12416 5.02737 8.77864L8.22347 7.83709C8.60354 7.72479 8.93179 7.48292 9.15638 7.15468L11.0395 4.40776C11.7219 3.40575 13.2076 3.40575 13.8901 4.40776L15.7732 7.15468C15.9977 7.48292 16.326 7.72479 16.7061 7.83709L19.9022 8.77864C21.0683 9.12416 21.5261 10.5235 20.7833 11.491L18.7533 14.1343C18.5114 14.4452 18.3819 14.8339 18.3991 15.2313L18.4769 17.9523" stroke="#237DFF" stroke-width="2" stroke-linecap="round"/>
<path d="M9.04565 11.4045C9.04565 11.4045 11.1361 10.9899 12.1035 9.08952" stroke="#237DFF" stroke-width="2" stroke-linecap="round"/>
</svg>
