<svg width="1440" height="326" viewBox="0 0 1440 326" fill="none" xmlns="http://www.w3.org/2000/svg">
<rect y="-1" width="1440" height="349" fill="#B3E5FF"/>
<path d="M1212.52 191.803C1249.88 218.715 1307.37 237.214 1387.07 234.677C1415.14 233.782 1442.68 228.382 1469.53 220.207" stroke="#FFF469" stroke-width="22.6456" stroke-miterlimit="10" stroke-linecap="round"/>
<path d="M1416.63 16.3672C1407.18 -10.3958 1385.69 -27.2233 1351.32 -2.87707C1328.53 13.2941 1314.5 39.1917 1311.7 66.7901C1309.79 85.7956 1313.04 121.897 1341.18 113.543C1379.61 101.788 1305.26 17.9186 1228.49 28.0032C1144.83 39.0127 1132.89 134.458 1212.52 191.803" stroke="#237DFF" stroke-width="22.6456" stroke-miterlimit="10" stroke-linecap="round"/>
<path d="M1077.34 398C1167.02 382.784 1266.74 330.272 1316.15 276.746C1365.55 223.22 1408.37 140.336 1420.78 68.5504C1423.64 52.0809 1422.3 32.419 1416.63 16.3672" stroke="#FF9AC7" stroke-width="22.6456" stroke-miterlimit="10" stroke-linecap="round"/>
<path d="M277.79 298.7C254.77 277.58 232.82 254.83 208.02 235.95C99.05 153.01 -67.84 157.98 -171.68 247.26" stroke="#FFF469" stroke-width="22.65" stroke-miterlimit="10" stroke-linecap="round"/>
<path d="M569.04 329.11C500.82 369.62 412.22 382.21 341.69 345.87C317.97 333.65 297.49 316.78 277.8 298.71" stroke="white" stroke-width="22.65" stroke-miterlimit="10" stroke-linecap="round"/>
<path d="M746.85 0.860001C763.46 22.94 766.74 52.91 761.27 80C755.8 107.09 742.5 131.9 728.37 155.64C687.8 223.83 637.27 288.6 569.05 329.11" stroke="#FF9AC7" stroke-width="22.65" stroke-miterlimit="10" stroke-linecap="round"/>
<path d="M1098.44 364.11C1009.05 428.36 887.15 444.6 784.06 406.01C680.97 367.42 599.7 275.12 574.47 167.96C565.9 131.57 563.55 92.88 574.39 57.1C585.23 21.32 610.62 -11.17 645.51 -24.61C680.4 -38.04 724.37 -29.02 746.85 0.849998" stroke="#237DFF" stroke-width="22.65" stroke-miterlimit="10" stroke-linecap="round"/>
</svg>
