<svg width="390" height="501" viewBox="0 0 390 501" fill="none" xmlns="http://www.w3.org/2000/svg">
<rect x="-984" y="-1" width="1440" height="703" fill="#B3E5FF"/>
<path d="M252.019 124.037C281.354 145.171 326.504 159.698 389.086 157.706C411.134 157.003 432.761 152.762 453.848 146.342" stroke="#FFF469" stroke-width="17.7836" stroke-miterlimit="10" stroke-linecap="round"/>
<path d="M412.306 -13.7335C404.878 -34.7505 388.009 -47.9652 361.017 -28.8461C343.116 -16.1469 332.104 4.19064 329.902 25.8637C328.402 40.7888 330.956 69.1395 353.051 62.579C383.229 53.3474 324.841 -12.5152 264.554 -4.59572C198.856 4.05006 189.484 79.0036 252.019 124.037" stroke="#237DFF" stroke-width="17.7836" stroke-miterlimit="10" stroke-linecap="round"/>
<path d="M145.856 285.964C216.288 274.014 294.592 232.777 333.393 190.743C372.193 148.709 405.816 83.6194 415.563 27.2461C417.812 14.3125 416.758 -1.12804 412.306 -13.7335" stroke="#FF9AC7" stroke-width="17.7836" stroke-miterlimit="10" stroke-linecap="round"/>
<path d="M121.324 255.768C134.368 273.107 136.943 296.643 132.648 317.917C128.352 339.19 117.908 358.674 106.811 377.317C74.9516 430.867 35.2703 481.731 -18.303 513.543" stroke="#FF9AC7" stroke-width="17.7871" stroke-miterlimit="10" stroke-linecap="round"/>
<path d="M397.428 541.029C327.23 591.484 231.502 604.238 150.545 573.933C69.5879 543.628 5.76641 471.145 -14.0468 386.992C-20.7768 358.415 -22.6222 328.031 -14.1096 299.933C-5.59688 271.835 14.3419 246.321 41.7411 235.766C69.1403 225.219 103.67 232.303 121.324 255.76" stroke="#237DFF" stroke-width="17.7871" stroke-miterlimit="10" stroke-linecap="round"/>
</svg>
